<?xml version="1.0" standalone="no"?>
<!DOCTYPE svg PUBLIC "-//W3C//DTD SVG 20010904//EN"
 "http://www.w3.org/TR/2001/REC-SVG-20010904/DTD/svg10.dtd">
<svg version="1.0" xmlns="http://www.w3.org/2000/svg"
 width="128.000000pt" height="128.000000pt" viewBox="0 0 128.000000 128.000000"
 preserveAspectRatio="xMidYMid meet">

<g transform="translate(0.000000,128.000000) scale(0.100000,-0.100000)"
fill="#000000" stroke="none">
<path d="M0 640 l0 -640 218 2 c148 1 193 3 142 8 -41 3 -99 14 -128 24 -73
25 -151 98 -188 178 l-29 63 0 365 0 365 29 63 c56 122 158 188 311 202 47 5
1 8 -142 9 l-213 1 0 -640z"/>
<path d="M939 1269 c187 -18 304 -126 330 -305 7 -46 9 -18 10 129 l1 187
-212 -1 c-178 -1 -199 -3 -129 -10z"/>
<path d="M374 1160 c-144 -13 -220 -71 -244 -185 -7 -34 -10 -164 -8 -367 3
-307 3 -314 27 -361 27 -55 83 -101 145 -119 28 -9 135 -13 346 -13 356 0 378
4 451 74 72 70 74 85 74 451 0 352 -5 388 -68 447 -52 50 -93 65 -201 74 -119
10 -406 9 -522 -1z m675 -146 c16 -35 14 -47 -10 -78 -52 -65 -153 0 -123 79
4 10 21 23 37 30 39 16 80 3 96 -31z m-309 -65 c49 -12 123 -61 153 -101 50
-65 71 -127 71 -208 1 -133 -69 -241 -191 -297 -67 -31 -164 -35 -240 -9 -66
22 -145 92 -181 160 -24 45 -27 62 -27 146 0 83 3 101 27 145 31 59 104 130
155 152 77 32 143 35 233 12z"/>
<path d="M591 850 c-52 -12 -112 -60 -139 -110 -33 -63 -29 -159 11 -218 102
-156 340 -112 389 70 38 146 -111 294 -261 258z"/>
<path d="M1267 313 c-7 -72 -56 -171 -104 -214 -57 -50 -132 -79 -225 -88 -68
-7 -45 -9 130 -10 l212 -1 0 185 c0 102 -2 185 -4 185 -2 0 -6 -26 -9 -57z"/>
</g>
</svg>
