<svg width="988" height="1050" viewBox="0 0 988 1050" fill="none" xmlns="http://www.w3.org/2000/svg">
<line x1="495.5" y1="1.5" x2="495.5" y2="28.5" stroke="#4D968E" stroke-width="3" stroke-linecap="round"/>
<line x1="495.5" y1="61.5" x2="495.5" y2="88.5" stroke="#4D968E" stroke-width="3" stroke-linecap="round"/>
<line x1="495.5" y1="121.5" x2="495.5" y2="148.5" stroke="#4D968E" stroke-width="3" stroke-linecap="round"/>
<line x1="495.5" y1="181.5" x2="495.5" y2="208.5" stroke="#4D968E" stroke-width="3" stroke-linecap="round"/>
<line x1="495.5" y1="241.5" x2="495.5" y2="268.5" stroke="#4D968E" stroke-width="3" stroke-linecap="round"/>
<line x1="495.5" y1="301.5" x2="495.5" y2="328.5" stroke="#4D968E" stroke-width="3" stroke-linecap="round"/>
<line x1="495.5" y1="361.5" x2="495.5" y2="388.5" stroke="#4D968E" stroke-width="3" stroke-linecap="round"/>
<line x1="495.5" y1="421.5" x2="495.5" y2="448.5" stroke="#4D968E" stroke-width="3" stroke-linecap="round"/>
<line x1="495.5" y1="481.5" x2="495.5" y2="508.5" stroke="#4D968E" stroke-width="3" stroke-linecap="round"/>
<line x1="495.5" y1="541.5" x2="495.5" y2="568.5" stroke="#4D968E" stroke-width="3" stroke-linecap="round"/>
<line x1="495.5" y1="601.5" x2="495.5" y2="628.5" stroke="#4D968E" stroke-width="3" stroke-linecap="round"/>
<line x1="495.5" y1="661.5" x2="495.5" y2="688.5" stroke="#4D968E" stroke-width="3" stroke-linecap="round"/>
<line x1="495.5" y1="721.5" x2="495.5" y2="748.5" stroke="#4D968E" stroke-width="3" stroke-linecap="round"/>
<line x1="495.5" y1="781.5" x2="495.5" y2="808.5" stroke="#4D968E" stroke-width="3" stroke-linecap="round"/>
<line x1="495.5" y1="841.5" x2="495.5" y2="868.5" stroke="#4D968E" stroke-width="3" stroke-linecap="round"/>
<line x1="495.5" y1="901.5" x2="495.5" y2="928.5" stroke="#4D968E" stroke-width="3" stroke-linecap="round"/>
<line x1="495.5" y1="961.5" x2="495.5" y2="988.5" stroke="#4D968E" stroke-width="3" stroke-linecap="round"/>
<line x1="495.5" y1="1021.5" x2="495.5" y2="1048.5" stroke="#4D968E" stroke-width="3" stroke-linecap="round"/>
<line x1="1.5" y1="591.5" x2="28.5" y2="591.5" stroke="#4D968E" stroke-width="3" stroke-linecap="round"/>
<line x1="61.5" y1="591.5" x2="88.5" y2="591.5" stroke="#4D968E" stroke-width="3" stroke-linecap="round"/>
<line x1="121.5" y1="591.5" x2="148.5" y2="591.5" stroke="#4D968E" stroke-width="3" stroke-linecap="round"/>
<line x1="181.5" y1="591.5" x2="208.5" y2="591.5" stroke="#4D968E" stroke-width="3" stroke-linecap="round"/>
<line x1="241.5" y1="591.5" x2="268.5" y2="591.5" stroke="#4D968E" stroke-width="3" stroke-linecap="round"/>
<line x1="301.5" y1="591.5" x2="328.5" y2="591.5" stroke="#4D968E" stroke-width="3" stroke-linecap="round"/>
<line x1="361.5" y1="591.5" x2="388.5" y2="591.5" stroke="#4D968E" stroke-width="3" stroke-linecap="round"/>
<line x1="421.5" y1="591.5" x2="448.5" y2="591.5" stroke="#4D968E" stroke-width="3" stroke-linecap="round"/>
<line x1="539.5" y1="591.5" x2="566.5" y2="591.5" stroke="#4D968E" stroke-width="3" stroke-linecap="round"/>
<line x1="599.5" y1="591.5" x2="626.5" y2="591.5" stroke="#4D968E" stroke-width="3" stroke-linecap="round"/>
<line x1="659.5" y1="591.5" x2="686.5" y2="591.5" stroke="#4D968E" stroke-width="3" stroke-linecap="round"/>
<line x1="719.5" y1="591.5" x2="746.5" y2="591.5" stroke="#4D968E" stroke-width="3" stroke-linecap="round"/>
<line x1="779.5" y1="591.5" x2="806.5" y2="591.5" stroke="#4D968E" stroke-width="3" stroke-linecap="round"/>
<line x1="839.5" y1="591.5" x2="866.5" y2="591.5" stroke="#4D968E" stroke-width="3" stroke-linecap="round"/>
<line x1="899.5" y1="591.5" x2="926.5" y2="591.5" stroke="#4D968E" stroke-width="3" stroke-linecap="round"/>
<line x1="959.5" y1="591.5" x2="986.5" y2="591.5" stroke="#4D968E" stroke-width="3" stroke-linecap="round"/>
</svg>
