<svg width="52" height="28" viewBox="0 0 52 28" fill="none" xmlns="http://www.w3.org/2000/svg">
<path fill-rule="evenodd" clip-rule="evenodd" d="M9.37407 15.1906L12.9417 11.0469C13.2259 10.7084 13.3827 10.4461 13.3821 9.98773C13.3728 9.46501 12.9193 9.0445 12.3669 9.0445H5.92786C5.42633 9.0445 4.92344 9.46638 4.9254 10.0318C4.9269 10.597 5.34772 11.0453 5.92786 11.0453H7.28093L7.28365 19.6169C7.29357 20.2074 7.76879 20.6204 8.28129 20.6485C8.69911 20.6522 9.07093 20.5476 9.29502 20.2932L12.5131 16.6414C13.2963 15.6608 13.9963 15.5107 15.0104 15.5107L20.1671 15.5218C21.0245 14.5612 21.9045 13.5761 22.7211 12.6372C21.6239 11.6032 20.5314 10.5626 19.2727 9.49388C18.4957 8.84807 17.3969 8.72423 16.6395 9.35561C15.4312 10.363 14.3805 11.3963 13.3308 12.5674C12.1156 13.9232 10.5446 15.7067 9.37017 17.0981L9.37407 15.1906ZM9.35574 12.0293L9.35288 11.2283C9.35483 11.1134 9.45824 11.0514 9.56194 11.0478H10.2967C10.54 11.052 10.563 11.2036 10.4697 11.3052L9.71404 12.1291C9.5935 12.2623 9.35559 12.2253 9.35574 12.0293ZM17.9235 13.6483H17.9393L19.9009 13.6486C20.3005 13.6486 20.4093 13.3489 20.1669 13.1248L18.7853 11.8473C18.5576 11.6365 18.2429 11.534 17.9288 11.5347C17.9271 11.5347 17.9253 11.5347 17.9235 11.5347C17.6094 11.534 17.2894 11.6365 17.0617 11.8473L15.6802 13.1248C15.4376 13.3489 15.5465 13.6486 15.9462 13.6486L17.9235 13.6483ZM29.9274 15.7785L28.7789 15.7829C28.1385 15.7829 27.7143 15.9174 27.4074 16.0842C28.5172 17.2807 29.4308 18.458 30.4369 19.6145C30.8189 20.0538 31.4949 20.0973 31.927 19.7197C32.3591 19.342 32.388 18.6829 32.0079 18.2414C31.3283 17.4519 30.7215 16.5887 29.9274 15.7785ZM23.1113 15.9667C23.5454 15.4426 24.0218 14.9301 24.4871 14.4125C26.22 16.1941 27.685 18.0499 29.2623 19.941C29.6478 20.3783 29.6267 21.0376 29.1995 21.4205C28.7721 21.8032 28.0959 21.7678 27.7085 21.333C26.1188 19.5851 25.0475 17.994 23.3431 16.184C23.2793 16.1191 23.177 16.0212 23.1113 15.9667ZM24.9163 18.3424C24.4751 17.8076 24.0542 17.2831 23.5718 16.7659C22.657 17.8015 21.786 18.8762 20.8838 19.94C20.513 20.377 20.5565 21.0364 20.9967 21.4195C21.437 21.8024 22.112 21.7672 22.485 21.3323C23.3459 20.3277 24.0645 19.3143 24.9163 18.3424ZM24.9168 13.6111C24.4467 13.1467 23.9758 12.6578 23.4706 12.179C21.5433 14.2042 19.7646 16.2946 18.1031 18.2254C17.7377 18.6669 17.789 19.326 18.2338 19.7037C18.6786 20.0816 19.3531 20.038 19.7204 19.5988C21.3347 17.6686 23.0632 15.5747 24.9168 13.6111ZM26.711 11.8287C28.0895 10.4302 29.4397 9.19584 30.945 8.04941C31.9057 7.24233 30.6264 5.58205 29.374 6.67649C27.9258 7.88635 26.6808 8.99445 25.2453 10.3771C25.7338 10.8282 26.2225 11.3078 26.711 11.8287ZM27.1498 12.5919C26.6597 13.0874 26.161 13.5405 25.6836 14.0472C24.9808 13.3441 24.3025 12.6372 23.6017 11.9684C22.1661 10.5984 20.6741 9.24575 19.2022 8.08293C18.2414 7.27601 19.5207 5.61542 20.7732 6.7097C22.2211 7.91971 23.6405 9.13423 25.0761 10.5171C25.7613 11.1772 26.4774 11.8966 27.1498 12.5919ZM25.254 14.8727C25.7318 15.4025 26.2249 15.9461 26.619 16.4084C27.2946 15.719 27.9226 15.5831 29.0002 15.5178L35.3268 15.5133C36.3407 15.5502 36.8673 15.728 37.5746 16.5452L40.6651 20.2971C40.9125 20.5747 41.2454 20.6398 41.5746 20.6408C42.081 20.6398 42.5601 20.1911 42.5501 19.6015L42.5517 11.0338L43.9009 11.0453C44.48 11.0453 44.9599 10.6071 44.9501 10.0318C44.9406 9.45541 44.4577 9.0445 43.8774 9.0445L39.1351 9.04375C38.5559 9.0445 38.1098 9.45631 38.1047 10.0318C38.1144 10.6082 38.5637 11.0453 39.1438 11.0453H40.4698L40.4778 16.7738C38.4525 14.4312 36.4518 11.8835 33.6984 9.47914C32.8099 8.74902 31.7937 8.70558 30.8104 9.56316C28.9472 11.1035 27.0155 13.0268 25.254 14.8727ZM32.2759 13.6483H32.2917L34.2531 13.6486C34.6528 13.6486 34.7617 13.3489 34.519 13.1248L33.1378 11.8473C32.9098 11.6365 32.5951 11.534 32.281 11.5347C32.2795 11.5347 32.2777 11.5347 32.2759 11.5347C31.9618 11.534 31.6419 11.6365 31.4139 11.8473L30.0326 13.1248C29.7899 13.3489 29.899 13.6486 30.2985 13.6486L32.2759 13.6483ZM24.9377 0.88479C30.7793 0.88479 37.2821 1.97095 42.4981 4.6899C46.0161 6.52393 49.8753 9.68609 49.8753 14C49.8753 18.3138 46.0161 21.4758 42.4981 23.3099C37.2821 26.0288 30.7793 27.115 24.9377 27.115C19.0964 27.115 12.5932 26.0288 7.37727 23.3099C3.85921 21.4758 0 18.3138 0 14C0 9.68609 3.85921 6.52393 7.37727 4.6899C12.5932 1.97095 19.0964 0.88479 24.9377 0.88479ZM4.84965 7.29524L4.2309 7.79752L3.66038 8.31362L3.13976 8.8422L2.6698 9.38251L2.25243 9.93288L1.88813 10.4921L1.57777 11.0596L1.32227 11.6344L1.12208 12.216L0.978255 12.8036L0.890926 13.3982L0.86147 14L0.890926 14.6014L0.978255 15.196L1.12208 15.7839L1.32227 16.3654L1.57777 16.94L1.88813 17.5075L2.25243 18.0667L2.6698 18.6174L3.13976 19.1574L3.66038 19.6861L4.2309 20.2023L4.84965 20.7045L5.51274 21.1903L6.22363 21.6617L6.9784 22.1158L7.77526 22.5515L8.61269 22.9676L9.48904 23.3637L10.4028 23.7385L11.3522 24.0911L12.3357 24.4201L13.3514 24.7253L14.3981 25.0055L15.4739 25.2598L16.5773 25.4873L17.7066 25.6872L18.86 25.8585L20.0363 26.0007L21.2337 26.113L22.4505 26.1938L23.6853 26.2431L24.9362 26.2598L26.187 26.2431L27.4219 26.1943L28.6386 26.1131L29.8359 26.0012L31.0121 25.859L32.1657 25.688L33.2947 25.488L34.398 25.2604L35.4738 25.0062L36.5203 24.7262L37.5361 24.4213L38.5195 24.0923L39.4687 23.7401L40.3822 23.3653L41.2584 22.9696L42.0959 22.5537L42.8926 22.1183L43.6472 21.6645L44.3581 21.1936L45.0234 20.7065L45.6446 20.2023L46.2149 19.6861L46.7357 19.1574L47.2055 18.6174L47.6229 18.0667L47.9872 17.5075L48.2979 16.94L48.5534 16.3654L48.7534 15.7839L48.8975 15.196L48.9844 14.6014L49.014 14L48.9844 13.3982L48.8975 12.8036L48.7534 12.216L48.5534 11.6344L48.2979 11.0596L47.9872 10.4921L47.6229 9.93288L47.2055 9.38251L46.7357 8.8422L46.2149 8.31362L45.6446 7.79752L45.0284 7.29689L44.3627 6.80949L43.6517 6.33802L42.8971 5.88399L42.1002 5.44814L41.2626 5.03198L40.3863 4.63595L39.4725 4.26113L38.5231 3.90884L37.5397 3.57969L36.5239 3.27445L35.4773 2.99415L34.4013 2.74001L33.2982 2.51217L32.1687 2.31257L31.0154 2.14109L29.839 1.99906L28.6418 1.88694L27.425 1.80579L26.1902 1.75649L24.9377 1.74011L23.6884 1.75649L22.4538 1.80563L21.2368 1.8865L20.0395 1.99862L18.8634 2.14063L17.7101 2.31197L16.5808 2.51186L15.4773 2.7391L14.4017 2.9934L13.3552 3.27339L12.3395 3.57834L11.356 3.90734L10.4066 4.25976L9.4931 4.63429L8.61675 5.03002L7.77962 5.44604L6.98275 5.88158L6.22813 6.33517L5.5174 6.80603L4.84965 7.29524ZM48.9634 0.884644C49.3604 0.884644 49.7351 0.95633 50.0848 1.09896C50.4352 1.24249 50.7452 1.45019 51.0149 1.72297C51.2822 1.98793 51.4874 2.29394 51.6298 2.64187C51.7731 2.98874 51.8445 3.355 51.8445 3.74246C51.8445 4.13232 51.7744 4.49829 51.6335 4.8393C51.4943 5.17956 51.2872 5.48225 51.0149 5.74737C50.7347 6.02226 50.418 6.23447 50.0636 6.3807C49.7091 6.52814 49.3428 6.60209 48.9634 6.60209C48.5768 6.60209 48.2122 6.53025 47.8644 6.38491C47.5171 6.24108 47.207 6.03082 46.9344 5.75518C46.6597 5.48495 46.4505 5.17761 46.3053 4.83164C46.162 4.48476 46.0895 4.12345 46.0895 3.74246C46.0895 3.36808 46.1631 3.00512 46.3117 2.65389C46.4596 2.3007 46.6729 1.98509 46.9505 1.7069C47.2151 1.43952 47.5181 1.23587 47.8617 1.09489C48.205 0.954819 48.5729 0.884644 48.9634 0.884644ZM51.5301 3.75433C51.5301 3.407 51.4669 3.07801 51.341 2.76931C51.2159 2.46046 51.0351 2.18768 50.7992 1.95233C50.5518 1.7096 50.2729 1.52474 49.9587 1.39684C49.6463 1.26759 49.3135 1.20402 48.9634 1.20402C48.6225 1.20402 48.2994 1.26684 47.9937 1.39008C47.6886 1.51527 47.4152 1.69803 47.1737 1.93609C46.9254 2.18768 46.7348 2.46828 46.6018 2.77894C46.4686 3.08914 46.4031 3.41241 46.4031 3.74682C46.4031 4.08182 46.4676 4.40284 46.5979 4.70869C46.7281 5.01469 46.9146 5.29078 47.1586 5.53441C47.4039 5.77623 47.6818 5.96169 47.9923 6.08929C48.3004 6.21854 48.6252 6.28241 48.9634 6.28241C49.3044 6.28211 49.6314 6.21749 49.9478 6.08794C50.2637 5.95763 50.5462 5.77112 50.7992 5.52614C51.0376 5.2962 51.2191 5.02972 51.3439 4.73034C51.4689 4.43066 51.5301 4.10602 51.5301 3.75433ZM49.0495 2.05031C49.5148 2.05031 49.8612 2.125 50.0848 2.27274C50.3092 2.42033 50.4209 2.64984 50.4209 2.95989C50.4209 3.19134 50.3491 3.38477 50.2087 3.54047C50.0665 3.69723 49.8773 3.79176 49.6382 3.82543L50.3775 5.34247H49.8073L49.1088 3.89516H48.3341V5.34247H47.8347V2.05031H49.0495ZM48.9557 2.38592H48.3341V3.56781H48.9557C49.3056 3.56781 49.5525 3.52409 49.6932 3.43767C49.8337 3.34945 49.9051 3.20201 49.9051 2.99446C49.9051 2.77833 49.8299 2.62323 49.6811 2.52869C49.5322 2.43416 49.289 2.38592 48.9557 2.38592Z" fill="#693222"/>
</svg>
