<svg width="234" height="30" viewBox="0 0 234 30" fill="none" xmlns="http://www.w3.org/2000/svg">
<path fill-rule="evenodd" clip-rule="evenodd" d="M13.5726 23.2841V27.8839H9.34096V23.2424C3.86623 22.1682 0.37793 17.2297 0.37793 11.7011C0.37793 5.2849 5.02093 0 11.5812 0C18.1429 0 22.7845 5.32037 22.7845 11.7322C22.7845 17.356 19.1494 22.3048 13.5726 23.2841ZM11.5812 19.2329C15.8017 19.2329 18.4595 15.771 18.4595 11.7322C18.4595 7.68373 15.8195 4.2004 11.5812 4.2004C7.32883 4.2004 4.70292 7.63203 4.70292 11.7011C4.70292 15.765 7.32537 19.2329 11.5812 19.2329ZM34.07 22.2132C33.0527 22.9245 31.8302 23.3175 30.5777 23.431C28.3037 23.6366 25.997 22.7889 25.079 20.5571C24.7804 19.8315 24.6793 19.0376 24.7688 18.2589C25.1644 14.8159 27.7248 13.869 30.7069 13.091C31.2705 12.944 33.6642 12.5218 33.9433 12.0403C33.9648 12.003 33.9771 11.9636 33.9833 11.9211C34.1375 10.8803 32.683 10.553 31.8858 10.6108C30.6089 10.664 29.6359 11.2415 29.2853 12.5191L29.1305 13.0832L25.2801 12.2773L25.3987 11.6743C26.0262 8.48435 28.9748 6.72231 32.0777 6.72231C35.9643 6.72231 38.2394 8.89689 38.2394 12.8526V23.2156H34.07V22.2132ZM34.0649 16.3462C33.2173 16.5737 32.3621 16.7888 31.5147 17.0034C30.7434 17.1989 29.0645 17.7588 29.2393 18.8682C29.3368 19.5817 30.3533 19.5561 30.8776 19.5148C32.4453 19.3919 33.9669 17.9521 34.0649 16.3462ZM46.8185 18.984H53.7877V23.2156H40.9665V19.3839L47.6834 11.1716H41.4024V6.97104H53.5077V10.7709L46.8185 18.984ZM65.0732 22.2132C64.0559 22.9245 62.8334 23.3175 61.5809 23.431C59.3069 23.6366 57.0002 22.7889 56.0822 20.5571C55.7836 19.8315 55.6825 19.0376 55.772 18.2589C56.1676 14.8159 58.728 13.869 61.7102 13.091C62.2737 12.944 64.6674 12.5218 64.9465 12.0403C64.968 12.003 64.9803 11.9636 64.9865 11.9211C65.1407 10.8803 63.6861 10.553 62.889 10.6108C61.6121 10.664 60.6391 11.2415 60.2886 12.5191L60.1337 13.0832L56.2833 12.2773L56.4019 11.6743C57.0295 8.48435 59.978 6.72231 63.0811 6.72231C66.9675 6.72231 69.2426 8.89689 69.2426 12.8526V23.2156H65.0732V22.2132ZM65.0682 16.3462C64.2204 16.5737 63.3653 16.7888 62.5179 17.0034C61.7466 17.1989 60.0678 17.7588 60.2425 18.8682C60.34 19.5817 61.3565 19.5561 61.8808 19.5148C63.4485 19.3919 64.9701 17.9521 65.0682 16.3462ZM83.0489 22.3093C81.8949 23.0787 80.5269 23.4334 79.096 23.4334C74.3571 23.4334 71.5029 19.5997 71.5029 15.0933C71.5029 10.5775 74.3391 6.72231 79.096 6.72231C80.5312 6.72231 81.8964 7.09384 83.0489 7.87191V6.97104H87.2805V30H83.0489V22.3093ZM79.4384 19.2329C81.8473 19.2329 82.9244 17.2951 82.9244 15.0933C82.9244 12.9075 81.8288 10.9537 79.4384 10.9537C77.063 10.9537 75.9833 12.9305 75.9833 15.0933C75.9833 17.272 77.0446 19.2329 79.4384 19.2329ZM102.422 17.7499C102.721 21.3744 99.6544 23.4956 96.2934 23.4956C93.3774 23.4956 90.4329 22.158 89.4196 19.2503L89.2163 18.6667L93.18 17.2575L93.392 17.8357C93.8056 18.9643 95.0854 19.2951 96.1691 19.2951C96.7284 19.2951 98.3318 19.0983 98.1975 18.1925C98.1258 17.6417 95.7569 17.1835 95.3609 17.1033C92.8065 16.5865 90.313 15.714 89.8292 12.831C89.588 11.3933 89.9937 9.89079 90.9232 8.76765C92.1238 7.31702 93.9304 6.75326 95.7644 6.75326C97.4429 6.75326 99.044 7.23165 100.305 8.36831C100.99 8.98617 101.664 9.92085 101.905 10.8252L102.054 11.3848L98.1117 12.7428L97.913 12.1468C97.637 11.319 96.5769 10.8914 95.7644 10.8914C95.1607 10.8914 94.0212 11.0272 94.0212 11.8568C94.0212 12.7433 95.9687 13.0674 96.5599 13.1744C99.2934 13.6689 102.158 14.5464 102.422 17.7499ZM105.805 10.8914H103.782V6.97104H105.805V3.97525L110.005 2.82566V6.97104H113.086V10.8914H110.005V17.6451C110.005 18.1428 109.977 18.9924 110.543 19.2132C110.954 19.3737 111.631 19.124 111.931 18.8239L112.451 18.3039L114.805 21.609L114.423 21.9811C113.107 23.2618 110.689 23.7612 108.949 23.2185C106.427 22.4317 105.805 20.1898 105.805 17.7699V10.8914ZM125.43 22.2132C124.412 22.9245 123.19 23.3175 121.937 23.431C119.664 23.6366 117.357 22.7889 116.439 20.5571C116.14 19.8315 116.039 19.0376 116.129 18.2589C116.524 14.8159 119.085 13.869 122.067 13.091C122.63 12.944 125.024 12.5218 125.303 12.0403C125.325 12.003 125.337 11.9636 125.343 11.9211C125.497 10.8803 124.043 10.553 123.246 10.6108C121.969 10.664 120.996 11.2415 120.645 12.5191L120.49 13.0832L116.64 12.2773L116.759 11.6743C117.386 8.48435 120.335 6.72231 123.438 6.72231C127.324 6.72231 129.599 8.89689 129.599 12.8526V23.2156H125.43V22.2132ZM125.425 16.3462C124.577 16.5737 123.722 16.7888 122.875 17.0034C122.103 17.1989 120.424 17.7588 120.599 18.8682C120.696 19.5817 121.713 19.5561 122.237 19.5148C123.805 19.3919 125.327 17.9521 125.425 16.3462ZM136.994 7.70553C137.944 7.08361 139.041 6.75326 140.231 6.75326C144.613 6.75326 146.392 10.1177 146.392 14.1286V23.2156H142.192V14.4087C142.192 12.6828 141.661 10.9537 139.671 10.9537C137.678 10.9537 136.994 12.379 136.994 14.2219V23.2156H132.793V6.97104H136.994V7.70553ZM158.795 11.7011C158.795 5.30474 163.419 0 169.967 0C176.546 0 181.17 5.30519 181.17 11.7322C181.17 18.1483 176.527 23.4334 169.967 23.4334C163.415 23.4334 158.795 18.0926 158.795 11.7011ZM169.967 19.2329C174.201 19.2329 176.876 15.7922 176.876 11.7322C176.876 7.66269 174.219 4.2004 169.967 4.2004C165.732 4.2004 163.088 7.64751 163.088 11.7011C163.088 15.7495 165.729 19.2329 169.967 19.2329ZM169.967 9.21176C171.368 9.21176 172.487 10.3307 172.487 11.7322C172.487 13.1212 171.349 14.2215 169.967 14.2215C168.596 14.2215 167.477 13.1025 167.477 11.7322C167.477 10.3498 168.578 9.21176 169.967 9.21176ZM188.409 7.70553C189.359 7.08361 190.456 6.75326 191.646 6.75326C196.028 6.75326 197.807 10.1177 197.807 14.1286V23.2156H193.607V14.4087C193.607 12.6828 193.076 10.9537 191.086 10.9537C189.093 10.9537 188.409 12.379 188.409 14.2219V23.2156H184.208V6.97104H188.409V7.70553ZM211.556 17.2093L215.317 19.0247L214.985 19.6041C213.58 22.0537 211.146 23.4334 208.314 23.4334C203.614 23.4334 200.379 19.6703 200.379 15.0933C200.379 10.531 203.506 6.75326 208.221 6.75326C213.017 6.75326 215.534 10.6245 215.534 15.0933C215.534 15.633 215.498 16.1708 215.399 16.7018L215.304 17.2093H211.556ZM205.186 17.2093C205.729 18.4627 206.815 19.2329 208.314 19.2329C209.545 19.2329 210.564 18.7148 211.207 17.6633L211.485 17.2093H205.186ZM205.09 13.1643H211.088C210.694 11.8296 209.815 10.9537 208.221 10.9537C206.633 10.9537 205.589 11.8239 205.09 13.1643ZM222.306 7.67426C223.256 7.0525 224.353 6.72231 225.543 6.72231C225.976 6.72231 226.402 6.78408 226.828 6.85517L227.451 6.95871L226.639 11.4208L225.926 11.1236C225.618 10.9953 225.315 10.9537 224.983 10.9537C223.006 10.9537 222.306 12.3953 222.306 14.2219V23.2156H218.105V6.97104H222.306V7.67426ZM229.546 23.2156V6.97104H233.746V23.2156H229.546ZM231.661 5.91208C230.353 5.91208 229.297 4.85537 229.297 3.54737C229.297 2.25199 230.373 1.21362 231.661 1.21362C232.938 1.21362 233.995 2.27048 233.995 3.54737C233.995 4.83643 232.957 5.91208 231.661 5.91208Z" fill="#693222"/>
</svg>
